<?xml version="1.0" encoding="utf-8"?>
<!-- Generator: Adobe Illustrator 16.0.4, SVG Export Plug-In . SVG Version: 6.00 Build 0)  -->
<!DOCTYPE svg PUBLIC "-//W3C//DTD SVG 1.1//EN" "http://www.w3.org/Graphics/SVG/1.1/DTD/svg11.dtd">
<svg version="1.1" xmlns="http://www.w3.org/2000/svg" xmlns:xlink="http://www.w3.org/1999/xlink" x="0px" y="0px" width="66px"
	 height="28px" viewBox="0 0 66 28" enable-background="new 0 0 66 28" xml:space="preserve">
<g id="Layer_1">
</g>
<g id="bg">
</g>
<g id="Layer_3">
</g>
<g id="search">
</g>
<g id="New_Symbol">
</g>
<g fill="#FFFFFF" id="logo">
	<g>
		<path fill="#FFFFFF" d="M58.172,3.405C55.852,3,53.222,3.101,44.845,3c-5.657,0-8.499,0.101-8.887,0.101c-3.638,0.204-6.731-0.39-7.072,3.638
			C28.609,10,28.609,12.158,28.609,14c0.199,4.701-0.529,10.308,4.012,10.717C34.947,24.921,40.617,25,44.609,25
			c5.45,0,11.751-0.082,13.771-0.491c0.886-0.216,1.665-1.131,1.919-1.511c1.184-1.585,1.205-3.973,1.311-9.09
			C61.409,9.563,61.709,3.909,58.172,3.405 M38.078,8.453h-2.32v12.225H33.63V8.453h-2.22V6.334h6.668
			C38.078,6.334,38.178,8.453,38.078,8.453 M44.035,20.778h-1.919v-1.218c0,0-1.01,1.318-2.12,1.318
			c-1.109,0-1.518-0.71-1.518-2.021v-8.787h1.919v8.587c0,0,0,0.4,0.509,0.4c0.501,0,1.21-0.708,1.21-0.909v-8.078h1.919V20.778z
			 M51.412,18.858c0,0-0.209,2.021-1.418,2.021c-1.211,0-1.92-0.71-2.32-1.21v1.109h-1.92V6.434h1.92v4.648
			c0,0,1.01-1.214,1.92-1.214c0.909,0,1.818,0.604,1.818,1.919V18.858z M58.681,18.858c-0.301,1.819-2.528,2.021-2.528,2.021
			c-3.229,0-3.129-3.029-3.129-3.029v-5.053c0-0.405,0.199-1.01,0.199-1.01c0.209-0.605,0.41-1.819,2.83-1.819
			c2.829,0,2.729,2.829,2.729,2.829v2.933h-3.84v2.12c0,0.601,0.301,1.209,1.11,1.209s0.81-1.209,0.81-1.209v-0.81h1.92
			C58.781,17.04,58.881,17.541,58.681,18.858 M56.861,12.797c0,0-0.1-1.11-0.909-1.11s-1.011,0.909-1.011,1.11v1.314h1.92V12.797z
			 M48.684,11.687c-0.509,0-0.91,0.405-0.91,0.405v6.566c0.301,0.4,0.91,0.4,0.91,0.4c0.81,0,0.81-0.909,0.81-0.909v-5.353
			C49.493,12.092,49.185,11.687,48.684,11.687"/>
		<path fill="#FFFFFF" d="M15.04,9.869c-0.261-0.048-0.613-0.048-0.884,0.003c-0.654,0.123-1.827,0.539-2.252,1.954c0,0-0.101,0.7-0.101,1.002
			v5.008c0,0,0.025,0.854,0.502,1.605c0.359,0.567,0.982,1.065,1.981,1.179c0.135,0.014,0.576,0.009,0.737-0.014
			c0.944-0.129,1.541-0.615,1.889-1.165c0.475-0.752,0.5-1.605,0.5-1.605v-5.008c0-0.302-0.098-1.002-0.098-1.002
			C16.883,10.395,15.688,9.986,15.04,9.869 M15.51,12.828v5.008c0,1.203-0.9,1.102-0.9,1.102s-1.002,0.102-1.002-1.102v-5.008
			c0-1.404,1.002-1.303,1.002-1.303C15.61,11.525,15.51,12.828,15.51,12.828 M8.097,11.826l-1.503-5.51H4.391l2.705,8.414v5.712
			h2.001V14.73l2.606-8.414H9.6L8.097,11.826z M22.623,9.922v8.115c-0.301,0.7-1.102,0.9-1.102,0.9
			c-0.702,0-0.602-0.498-0.602-0.498V9.922h-1.904v9.117c0,1.001,0.501,1.603,1.504,1.603c1.002,0,2.104-1.302,2.104-1.302v1.203
			h1.902V9.922H22.623z"/>
	</g>
</g>
</svg>
